<?xml version="1.0" encoding="UTF-8" standalone="no"?>
<!DOCTYPE svg PUBLIC "-//W3C//DTD SVG 1.1//EN" "http://www.w3.org/Graphics/SVG/1.1/DTD/svg11.dtd">
<svg width="100%" height="100%" viewBox="0 0 600 800" version="1.1" xmlns="http://www.w3.org/2000/svg" xmlns:xlink="http://www.w3.org/1999/xlink" xml:space="preserve" xmlns:serif="http://www.serif.com/" style="fill-rule:evenodd;clip-rule:evenodd;stroke-linejoin:round;stroke-miterlimit:2;">
    <g id="Button" transform="matrix(0.630521,0,0,0.869728,-468.945,0.0885063)">
        <rect x="743.742" y="-0.102" width="951.594" height="919.828" style="fill:none;"/>
        <g transform="matrix(1.7411,0,0,1.16841,707.417,-9.83374)">
            <path d="M539.235,93.916C539.235,67.731 519.556,46.471 495.317,46.471L91.262,46.471C67.023,46.471 47.343,67.731 47.343,93.916L47.343,707.549C47.343,733.734 67.023,754.993 91.262,754.993L495.317,754.993C519.556,754.993 539.235,733.734 539.235,707.549L539.235,93.916Z" style="fill:rgb(76,76,76);"/>
            <path d="M495.317,767.786L91.262,767.786C60.487,767.786 35.502,740.795 35.502,707.549C35.502,707.549 35.502,93.916 35.502,93.916C35.502,60.67 60.487,33.679 91.262,33.679L495.317,33.679C526.092,33.679 551.077,60.67 551.077,93.916C551.077,93.916 551.077,707.549 551.077,707.549C551.077,740.795 526.092,767.786 495.317,767.786ZM495.317,46.471L91.262,46.471C67.023,46.471 47.343,67.731 47.343,93.916L47.343,707.549C47.343,733.734 67.023,754.993 91.262,754.993L495.317,754.993C519.556,754.993 539.235,733.734 539.235,707.549L539.235,93.916C539.235,67.731 519.556,46.471 495.317,46.471Z"/>
        </g>
        <g transform="matrix(1.52028,0,0,1.06133,481.856,129.371)">
            <path d="M641.71,284.264C641.71,269.317 630.024,257.181 615.629,257.181L354.824,257.181C340.43,257.181 328.744,269.317 328.744,284.264L328.744,338.432C328.744,353.38 340.43,365.516 354.824,365.516L615.629,365.516C630.024,365.516 641.71,353.38 641.71,338.432L641.71,284.264Z" style="fill:rgb(0,122,255);"/>
            <path d="M615.629,257.181C630.024,257.181 641.71,269.317 641.71,284.264L641.71,338.432C641.71,353.38 630.024,365.516 615.629,365.516L354.824,365.516C340.43,365.516 328.744,353.38 328.744,338.432L328.744,284.264C328.744,269.317 340.43,257.181 354.824,257.181L615.629,257.181ZM615.629,261.768L354.824,261.768C342.868,261.768 333.161,271.848 333.161,284.264L333.161,338.432C333.161,350.848 342.868,360.928 354.824,360.928L615.629,360.928C627.585,360.928 637.292,350.848 637.292,338.432L637.292,284.264C637.292,271.848 627.585,261.768 615.629,261.768Z" style="fill:white;"/>
        </g>
        <g transform="matrix(5.24486,0,0,3.80233,-0.36406,-1008.23)">
            <g transform="matrix(12,0,0,12,204.688,390.266)">
                <path d="M0.09,-0.705L0.09,0L0.178,0L0.178,-0.251L0.355,-0.251C0.487,-0.251 0.582,-0.345 0.582,-0.477C0.582,-0.611 0.489,-0.705 0.356,-0.705L0.09,-0.705ZM0.178,-0.626L0.333,-0.626C0.435,-0.626 0.491,-0.573 0.491,-0.477C0.491,-0.383 0.433,-0.33 0.333,-0.33L0.178,-0.33L0.178,-0.626Z" style="fill:white;fill-rule:nonzero;"/>
            </g>
            <g transform="matrix(12,0,0,12,212.311,390.266)">
                <path d="M0.079,0L0.163,0L0.163,-0.326C0.163,-0.4 0.221,-0.454 0.301,-0.454C0.318,-0.454 0.348,-0.451 0.355,-0.449L0.355,-0.533C0.344,-0.535 0.327,-0.536 0.313,-0.536C0.243,-0.536 0.183,-0.5 0.167,-0.448L0.159,-0.448L0.159,-0.526L0.079,-0.526L0.079,0Z" style="fill:white;fill-rule:nonzero;"/>
            </g>
            <g transform="matrix(12,0,0,12,216.706,390.266)">
                <path d="M0.289,-0.461C0.373,-0.461 0.428,-0.4 0.43,-0.307L0.14,-0.307C0.146,-0.4 0.205,-0.461 0.289,-0.461ZM0.428,-0.136C0.406,-0.09 0.36,-0.065 0.292,-0.065C0.203,-0.065 0.145,-0.131 0.14,-0.235L0.14,-0.239L0.519,-0.239L0.519,-0.271C0.519,-0.435 0.432,-0.536 0.29,-0.536C0.146,-0.536 0.053,-0.428 0.053,-0.263C0.053,-0.096 0.144,0.009 0.29,0.009C0.405,0.009 0.486,-0.046 0.512,-0.136L0.428,-0.136Z" style="fill:white;fill-rule:nonzero;"/>
            </g>
            <g transform="matrix(12,0,0,12,223.561,390.266)">
                <path d="M0.067,-0.382C0.067,-0.306 0.112,-0.264 0.21,-0.24L0.301,-0.218C0.357,-0.204 0.384,-0.18 0.384,-0.144C0.384,-0.095 0.333,-0.062 0.263,-0.062C0.195,-0.062 0.153,-0.09 0.139,-0.134L0.053,-0.134C0.062,-0.047 0.143,0.009 0.26,0.009C0.379,0.009 0.471,-0.056 0.471,-0.15C0.471,-0.226 0.423,-0.269 0.324,-0.292L0.243,-0.312C0.181,-0.327 0.151,-0.35 0.151,-0.386C0.151,-0.433 0.2,-0.464 0.263,-0.464C0.326,-0.464 0.367,-0.437 0.378,-0.395L0.461,-0.395C0.45,-0.481 0.374,-0.536 0.263,-0.536C0.151,-0.536 0.067,-0.47 0.067,-0.382Z" style="fill:white;fill-rule:nonzero;"/>
            </g>
            <g transform="matrix(12,0,0,12,229.725,390.266)">
                <path d="M0.067,-0.382C0.067,-0.306 0.112,-0.264 0.21,-0.24L0.301,-0.218C0.357,-0.204 0.384,-0.18 0.384,-0.144C0.384,-0.095 0.333,-0.062 0.263,-0.062C0.195,-0.062 0.153,-0.09 0.139,-0.134L0.053,-0.134C0.062,-0.047 0.143,0.009 0.26,0.009C0.379,0.009 0.471,-0.056 0.471,-0.15C0.471,-0.226 0.423,-0.269 0.324,-0.292L0.243,-0.312C0.181,-0.327 0.151,-0.35 0.151,-0.386C0.151,-0.433 0.2,-0.464 0.263,-0.464C0.326,-0.464 0.367,-0.437 0.378,-0.395L0.461,-0.395C0.45,-0.481 0.374,-0.536 0.263,-0.536C0.151,-0.536 0.067,-0.47 0.067,-0.382Z" style="fill:white;fill-rule:nonzero;"/>
            </g>
            <g transform="matrix(12,0,0,12,239.393,390.266)">
                <path d="M0.784,0L0.784,-0.705L0.682,-0.705L0.441,-0.122L0.433,-0.122L0.192,-0.705L0.09,-0.705L0.09,0L0.172,0L0.172,-0.538L0.178,-0.538L0.4,-0.005L0.474,-0.005L0.696,-0.538L0.702,-0.538L0.702,0L0.784,0Z" style="fill:white;fill-rule:nonzero;"/>
            </g>
            <g transform="matrix(12,0,0,12,249.881,390.266)">
                <path d="M0.289,-0.461C0.373,-0.461 0.428,-0.4 0.43,-0.307L0.14,-0.307C0.146,-0.4 0.205,-0.461 0.289,-0.461ZM0.428,-0.136C0.406,-0.09 0.36,-0.065 0.292,-0.065C0.203,-0.065 0.145,-0.131 0.14,-0.235L0.14,-0.239L0.519,-0.239L0.519,-0.271C0.519,-0.435 0.432,-0.536 0.29,-0.536C0.146,-0.536 0.053,-0.428 0.053,-0.263C0.053,-0.096 0.144,0.009 0.29,0.009C0.405,0.009 0.486,-0.046 0.512,-0.136L0.428,-0.136Z" style="fill:white;fill-rule:nonzero;"/>
            </g>
            <g transform="matrix(12,0,0,12,256.737,390.266)">
                <path d="M0.106,-0.705L0.115,-0.234L0.196,-0.234L0.204,-0.705L0.106,-0.705ZM0.156,0.009C0.195,0.009 0.223,-0.02 0.223,-0.059C0.223,-0.099 0.195,-0.127 0.156,-0.127C0.116,-0.127 0.088,-0.099 0.088,-0.059C0.088,-0.02 0.116,0.009 0.156,0.009Z" style="fill:white;fill-rule:nonzero;"/>
            </g>
        </g>
    </g>
</svg>
