<?xml version="1.0" encoding="UTF-8" standalone="no"?>
<!DOCTYPE svg PUBLIC "-//W3C//DTD SVG 1.1//EN" "http://www.w3.org/Graphics/SVG/1.1/DTD/svg11.dtd">
<svg width="100%" height="100%" viewBox="0 0 600 800" version="1.1" xmlns="http://www.w3.org/2000/svg" xmlns:xlink="http://www.w3.org/1999/xlink" xml:space="preserve" xmlns:serif="http://www.serif.com/" style="fill-rule:evenodd;clip-rule:evenodd;stroke-miterlimit:10;">
    <g transform="matrix(1,0,0,1,-2125.16,-1.25579)">
        <g id="Top-Center" serif:id="Top Center" transform="matrix(0.630521,0,0,0.869728,1656.22,1.3443)">
            <rect x="743.742" y="-0.102" width="951.594" height="919.828" style="fill:none;"/>
            <g transform="matrix(1.7411,0,0,1.16841,707.417,-9.83374)">
                <path d="M539.235,93.916C539.235,67.731 519.556,46.471 495.317,46.471L91.262,46.471C67.023,46.471 47.343,67.731 47.343,93.916L47.343,707.549C47.343,733.734 67.023,754.993 91.262,754.993L495.317,754.993C519.556,754.993 539.235,733.734 539.235,707.549L539.235,93.916Z" style="fill:rgb(76,76,76);"/>
                <path d="M495.317,767.786L91.262,767.786C60.487,767.786 35.502,740.795 35.502,707.549C35.502,707.549 35.502,93.916 35.502,93.916C35.502,60.67 60.487,33.679 91.262,33.679L495.317,33.679C526.092,33.679 551.077,60.67 551.077,93.916C551.077,93.916 551.077,707.549 551.077,707.549C551.077,740.795 526.092,767.786 495.317,767.786ZM495.317,46.471L91.262,46.471C67.023,46.471 47.343,67.731 47.343,93.916L47.343,707.549C47.343,733.734 67.023,754.993 91.262,754.993L495.317,754.993C519.556,754.993 539.235,733.734 539.235,707.549L539.235,93.916C539.235,67.731 519.556,46.471 495.317,46.471Z"/>
            </g>
            <g transform="matrix(1.58599,0,0,1.14979,743.742,40.7291)">
                <g transform="matrix(0.958571,0,0,0.923064,-165.124,-34.1461)">
                    <path d="M641.71,284.264C641.71,269.317 630.024,257.181 615.629,257.181L354.824,257.181C340.43,257.181 328.744,269.317 328.744,284.264L328.744,338.432C328.744,353.38 340.43,365.516 354.824,365.516L615.629,365.516C630.024,365.516 641.71,353.38 641.71,338.432L641.71,284.264Z" style="fill:rgb(0,122,255);"/>
                    <path d="M615.629,257.181C630.024,257.181 641.71,269.317 641.71,284.264L641.71,338.432C641.71,353.38 630.024,365.516 615.629,365.516L354.824,365.516C340.43,365.516 328.744,353.38 328.744,338.432L328.744,284.264C328.744,269.317 340.43,257.181 354.824,257.181L615.629,257.181ZM615.629,261.768L354.824,261.768C342.868,261.768 333.161,271.848 333.161,284.264C333.161,284.264 333.161,338.432 333.161,338.432C333.161,350.848 342.868,360.928 354.824,360.928L615.629,360.928C627.585,360.928 637.292,350.848 637.292,338.432L637.292,284.264C637.292,271.848 627.585,261.768 615.629,261.768Z" style="fill:white;"/>
                </g>
                <g transform="matrix(0.958571,0,0,0.923064,-165.124,-184.146)">
                    <path d="M641.71,284.264C641.71,269.317 630.024,257.181 615.629,257.181L354.824,257.181C340.43,257.181 328.744,269.317 328.744,284.264L328.744,338.432C328.744,353.38 340.43,365.516 354.824,365.516L615.629,365.516C630.024,365.516 641.71,353.38 641.71,338.432L641.71,284.264Z" style="fill:rgb(0,122,255);"/>
                    <path d="M615.629,257.181C630.024,257.181 641.71,269.317 641.71,284.264L641.71,338.432C641.71,353.38 630.024,365.516 615.629,365.516L354.824,365.516C340.43,365.516 328.744,353.38 328.744,338.432L328.744,284.264C328.744,269.317 340.43,257.181 354.824,257.181L615.629,257.181ZM615.629,261.768L354.824,261.768C342.868,261.768 333.161,271.848 333.161,284.264C333.161,284.264 333.161,338.432 333.161,338.432C333.161,350.848 342.868,360.928 354.824,360.928L615.629,360.928C627.585,360.928 637.292,350.848 637.292,338.432L637.292,284.264C637.292,271.848 627.585,261.768 615.629,261.768Z" style="fill:white;"/>
                </g>
            </g>
            <g transform="matrix(2.64721,0,0,0.0958154,155.076,44.4638)">
                <g transform="matrix(0.599117,-0,-0,12,222.372,-465.119)">
                    <path d="M312.483,42.76L280.483,42.76" style="fill:none;stroke:rgb(255,38,0);stroke-width:8px;"/>
                    <path d="M312.483,84.76L280.483,84.76" style="fill:none;stroke:rgb(255,38,0);stroke-width:8px;"/>
                    <path d="M296.483,42.76L296.483,84.76" style="fill:none;stroke:rgb(255,38,0);stroke-width:8px;stroke-linejoin:round;stroke-miterlimit:1.5;"/>
                </g>
            </g>
            <g transform="matrix(2.64721,0,0,0.0958154,155.076,216.932)">
                <g transform="matrix(0.599117,-0,-0,12,222.372,-2265.12)">
                    <path d="M312.483,192.76L280.483,192.76" style="fill:none;stroke:rgb(255,38,0);stroke-width:8px;"/>
                    <path d="M312.483,234.76L280.483,234.76" style="fill:none;stroke:rgb(255,38,0);stroke-width:8px;"/>
                    <path d="M296.483,192.76L296.483,234.76" style="fill:none;stroke:rgb(255,38,0);stroke-width:8px;stroke-linejoin:round;stroke-miterlimit:1.5;"/>
                </g>
            </g>
        </g>
    </g>
</svg>
